#tb 0: 1/25
0,          0,          0,        1,   152064, 0xff653049
0,          1,          1,        1,   152064, 0x2488dd67
0,          2,          2,        1,   152064, 0xea2d72a0
0,          3,          3,        1,   152064, 0x7f9c1511
0,          4,          4,        1,   152064, 0x61fff533
0,          5,          5,        1,   152064, 0xc49699d2
0,          6,          6,        1,   152064, 0x01a53e21
0,          7,          7,        1,   152064, 0x4a28e0ab
0,          8,          8,        1,   152064, 0x450a1ea2
0,          9,          9,        1,   152064, 0xbf97ad7f
0,         10,         10,        1,   152064, 0x0c3cb532
0,         11,         11,        1,   152064, 0x4d88324f
0,         12,         12,        1,   152064, 0xc1c2f7c4
0,         13,         13,        1,   152064, 0xd64731ff
0,         14,         14,        1,   152064, 0x0bfb00b1
0,         15,         15,        1,   152064, 0xc2424a6b
0,         16,         16,        1,   152064, 0x105dbb2f
0,         17,         17,        1,   152064, 0xa178159c
0,         18,         18,        1,   152064, 0xc8445334
0,         19,         19,        1,   152064, 0x55fc31d7
0,         20,         20,        1,   152064, 0xda5d4eed
0,         21,         21,        1,   152064, 0x4c37dc14
0,         22,         22,        1,   152064, 0xf3f4756c
0,         23,         23,        1,   152064, 0x32f4d1f8
0,         24,         24,        1,   152064, 0xace82008
0,         25,         25,        1,   152064, 0xc0e803a5
0,         26,         26,        1,   152064, 0xcd27f89f
0,         27,         27,        1,   152064, 0xf6d5ab79
0,         28,         28,        1,   152064, 0x6a5cbe23
0,         29,         29,        1,   152064, 0x1fe86428
0,         30,         30,        1,   152064, 0x4f8f6e94
0,         31,         31,        1,   152064, 0xa779535c
0,         32,         32,        1,   152064, 0xdd1ff1ef
0,         33,         33,        1,   152064, 0xe58aefd6
0,         34,         34,        1,   152064, 0x90c03df9
0,         35,         35,        1,   152064, 0x19f43a65
0,         36,         36,        1,   152064, 0x4f0b465f
0,         37,         37,        1,   152064, 0xa41bb42f
0,         38,         38,        1,   152064, 0xa549eca5
0,         39,         39,        1,   152064, 0x1b7ac6d9
0,         40,         40,        1,   152064, 0xe98eed58
0,         41,         41,        1,   152064, 0xdf5f3124
0,         42,         42,        1,   152064, 0xa528ff4f
0,         43,         43,        1,   152064, 0x1a1a8e3b
0,         44,         44,        1,   152064, 0x5af10a7d
0,         45,         45,        1,   152064, 0xb96a1f05
0,         46,         46,        1,   152064, 0xb6f09cc6
0,         47,         47,        1,   152064, 0x6f1055c5
0,         48,         48,        1,   152064, 0xc253fa05
0,         49,         49,        1,   152064, 0x02f4e99c
